<?xml version="1.0" standalone="no"?>
<!DOCTYPE svg PUBLIC "-//W3C//DTD SVG 20010904//EN"
 "http://www.w3.org/TR/2001/REC-SVG-20010904/DTD/svg10.dtd">
<svg version="1.0" xmlns="http://www.w3.org/2000/svg"
 width="500.000000pt" height="500.000000pt" viewBox="0 0 500.000000 500.000000"
 preserveAspectRatio="xMidYMid meet">

<g transform="translate(0.000000,500.000000) scale(0.100000,-0.100000)"
fill="#000000" stroke="none">
<path d="M2305 4993 c-287 -19 -618 -110 -900 -248 -263 -129 -461 -270 -671
-479 -209 -210 -350 -408 -479 -671 -262 -538 -324 -1143 -174 -1721 181 -700
658 -1286 1310 -1609 397 -196 793 -277 1250 -254 685 34 1331 360 1781 899
495 592 685 1404 508 2166 -76 328 -260 708 -468 969 -97 121 -201 232 -303
322 -520 456 -1160 672 -1854 626z m1155 -1298 l0 -214 -651 -916 c-357 -504
-653 -923 -656 -931 -4 -12 91 -14 696 -14 l701 0 0 -240 0 -240 -1055 0
-1055 0 0 228 0 227 645 912 c355 501 645 914 645 917 0 3 -265 6 -590 6
l-590 0 0 240 0 240 955 0 955 0 0 -215z"/>
</g>
</svg>
